<svg width="839.4424560546875px" height="122px" xmlns="http://www.w3.org/2000/svg" viewBox="-169.72122802734373 14 839.4424560546875 122" style="background: rgba(0, 0, 0, 0);" preserveAspectRatio="xMidYMid"><defs><linearGradient id="editing-sticker-gradient" x1="0.5" y1="0.2" x2="0.5" y2="0.8"><stop offset="0" stop-color="#fd9"></stop><stop offset="1" stop-color="#9df"></stop></linearGradient><filter id="editing-sticker" x="-100%" y="-100%" width="300%" height="300%"><feMorphology operator="erode" radius="1" in="SourceAlpha" result="alpha-erode"></feMorphology><feConvolveMatrix order="3,3" divisor="1" kernelMatrix="0 1 0 1 1 1 0 1 0" in="alpha-erode" result="alpha-round"></feConvolveMatrix><feMorphology operator="dilate" radius="3.5" in="alpha-round" result="dilate-shadow"></feMorphology><feGaussianBlur in="dilate-shadow" stdDeviation="1.5" result="shadow"></feGaussianBlur><feFlood flood-color="#fff" result="flood-sticker"></feFlood><feComposite operator="in" in="flood-sticker" in2="alpha-round" result="comp-sticker"></feComposite><feMorphology operator="dilate" radius="3" in="comp-sticker" result="morph-sticker"></feMorphology><feConvolveMatrix order="3,3" divisor="1" kernelMatrix="0 1 0 1 1 1 0 1 0" in="morph-sticker" result="sticker"></feConvolveMatrix><feMerge><feMergeNode in="shadow"></feMergeNode><feMergeNode in="sticker"></feMergeNode><feMergeNode in="SourceGraphic"></feMergeNode></feMerge></filter></defs><g filter="url(#editing-sticker)"><g transform="translate(-50.73500367999077, 97.21500015258789)"><path d="M0.45-0.32L0.45-0.32L8.51-42.24L8.51-42.24Q16.06-42.88 20.93-42.88L20.93-42.88L20.93-42.88Q25.79-42.88 28.93-42.46L28.93-42.46L28.93-42.46Q32.06-42.05 34.18-40.96L34.18-40.96L34.18-40.96Q38.40-38.91 38.40-33.28L38.40-33.28L38.40-33.28Q38.40-30.02 35.58-27.26L35.58-27.26L35.58-27.26Q32.96-24.77 30.08-24.19L30.08-24.19L30.08-24.19Q33.15-23.68 35.33-21.38L35.33-21.38L35.33-21.38Q37.63-18.94 37.63-15.17L37.63-15.17L37.63-15.17Q37.63-7.87 32.19-3.62L32.19-3.62L32.19-3.62Q26.75 0.64 16.06 0.64L16.06 0.64L16.06 0.64Q8.70 0.64 0.45-0.32ZM17.86-20.61L14.66-4.03L14.66-4.03Q15.23-3.97 15.36-3.97L15.36-3.97L15.94-3.97L15.94-3.97Q21.18-3.97 23.42-7.42L23.42-7.42L23.42-7.42Q25.09-10.11 25.09-15.04L25.09-15.04L25.09-15.04Q25.09-17.66 23.39-19.07L23.39-19.07L23.39-19.07Q21.70-20.48 17.86-20.61L17.86-20.61ZM27.58-33.22L27.58-33.22L27.58-33.22Q27.58-38.53 22.46-38.53L22.46-38.53L21.89-38.53L21.89-38.53Q21.63-38.53 21.25-38.46L21.25-38.46L18.69-24.96L19.33-24.96L19.33-24.96Q27.58-25.15 27.58-33.22ZM54.98 0L41.28 0L49.09-42.05L49.09-42.05Q55.42-42.75 64.67-42.75L64.67-42.75L64.67-42.75Q73.92-42.75 78.21-40.06L78.21-40.06L78.21-40.06Q82.50-37.38 82.50-31.97L82.50-31.97L82.50-31.97Q82.50-26.56 79.71-23.17L79.71-23.17L79.71-23.17Q76.93-19.78 72.13-18.69L72.13-18.69L72.13-18.69Q73.22-13.38 75.71-9.09L75.71-9.09L75.71-9.09Q78.02-5.06 80.70-3.78L80.70-3.78L80.70-3.78Q79.74-1.09 77.79 0.10L77.79 0.10L77.79 0.10Q75.84 1.28 73.06 1.28L73.06 1.28L73.06 1.28Q70.27 1.28 68.10-0.35L68.10-0.35L68.10-0.35Q65.92-1.98 64.19-4.99L64.19-4.99L64.19-4.99Q60.54-11.52 60.16-21.82L60.16-21.82L60.61-21.82L60.61-21.82Q65.34-21.95 67.71-24.42L67.71-24.42L67.71-24.42Q70.08-26.88 70.08-32.06L70.08-32.06L70.08-32.06Q70.08-38.53 64.64-38.78L64.64-38.78L63.23-38.78L63.23-38.78Q62.66-38.78 62.34-38.72L62.34-38.72L54.98 0ZM113.54 1.28L113.54 1.28L113.54 1.28Q105.34 1.28 104.58-10.37L104.58-10.37L93.57-10.37L93.57-10.37Q92.29-7.42 91.39-4.86L91.39-4.86L89.73 0L80.77 0L100.93-42.24L114.69-42.24L117.38-11.14L117.38-11.14Q118.02-4.42 120.58-2.43L120.58-2.43L120.58-2.43Q118.72 1.28 113.54 1.28ZM99.07-23.17L95.55-15.04L104.38-15.04L103.62-31.49L103.62-33.22L99.07-23.17ZM137.54 0L123.58 0L131.71-42.24L145.79-42.24L137.54 0ZM153.79 0L146.75 0L154.43-42.24L168.19-42.24L178.18-13.18L183.49-42.24L190.59-42.18L182.78 0L168.13 0L158.91-27.97L153.79 0ZM211.46 0L215.17-18.82L215.17-18.82Q213.31-36.16 206.78-39.87L206.78-39.87L206.78-39.87Q208.13-41.54 210.30-42.46L210.30-42.46L210.30-42.46Q212.48-43.39 215.10-43.39L215.10-43.39L215.10-43.39Q217.73-43.39 219.71-42.46L219.71-42.46L219.71-42.46Q221.70-41.54 222.98-39.55L222.98-39.55L222.98-39.55Q225.41-35.78 225.41-26.75L225.41-26.75L225.41-22.14L225.41-22.14Q229.25-33.41 233.09-38.27L233.09-38.27L233.09-38.27Q236.99-43.26 241.86-43.26L241.86-43.26L241.86-43.26Q243.78-43.26 245.06-42.27L245.06-42.27L245.06-42.27Q246.34-41.28 246.98-39.81L246.98-39.81L246.98-39.81Q242.05-37.63 237.31-31.36L237.31-31.36L237.31-31.36Q232.58-25.09 229.50-16.32L229.50-16.32L225.73 0L211.46 0ZM243.46-15.62L243.46-15.62L243.46-15.62Q243.46-27.71 249.73-35.33L249.73-35.33L249.73-35.33Q256.38-43.58 267.97-43.58L267.97-43.58L267.97-43.58Q276.35-43.58 280.58-39.52L280.58-39.52L280.58-39.52Q284.80-35.46 284.80-26.88L284.80-26.88L284.80-26.88Q284.80-13.82 278.14-6.21L278.14-6.21L278.14-6.21Q271.55 1.28 260.48 1.28L260.48 1.28L260.48 1.28Q251.84 1.28 247.65-3.04L247.65-3.04L247.65-3.04Q243.46-7.36 243.46-15.62ZM260.29-28.86L260.29-28.86L260.29-28.86Q257.41-17.34 257.41-8.26L257.41-8.26L257.41-8.26Q257.41-6.08 258.14-4.67L258.14-4.67L258.14-4.67Q258.88-3.26 260.83-3.26L260.83-3.26L260.83-3.26Q262.78-3.26 264-4.19L264-4.19L264-4.19Q265.22-5.12 266.18-7.23L266.18-7.23L266.18-7.23Q267.71-10.69 269.15-18.02L269.15-18.02L269.15-18.02Q270.59-25.34 270.72-28.38L270.72-28.38L270.72-28.38Q270.85-31.42 270.85-33.73L270.85-33.73L270.85-33.73Q270.85-36.03 270.14-37.50L270.14-37.50L270.14-37.50Q269.44-38.98 267.55-38.98L267.55-38.98L267.55-38.98Q265.66-38.98 264.38-37.82L264.38-37.82L264.38-37.82Q262.02-35.65 260.29-28.86ZM289.15-9.47L289.15-9.47L289.15-9.47Q289.15-11.97 289.79-15.17L289.79-15.17L294.98-42.24L309.12-42.24L304.00-14.98L304.00-14.98Q303.42-11.97 303.42-9.76L303.42-9.76L303.42-9.76Q303.42-7.55 304.35-6.40L304.35-6.40L304.35-6.40Q305.28-5.25 307.01-5.25L307.01-5.25L307.01-5.25Q308.74-5.25 309.82-5.70L309.82-5.70L309.82-5.70Q310.91-6.14 311.81-7.23L311.81-7.23L311.81-7.23Q313.54-9.41 314.62-14.98L314.62-14.98L319.81-42.24L329.47-42.24L324.35-15.04L324.35-15.04Q322.56-5.95 317.63-2.30L317.63-2.30L317.63-2.30Q312.83 1.28 303.36 1.28L303.36 1.28L303.36 1.28Q296.26 1.28 292.48-1.79L292.48-1.79L292.48-1.79Q289.15-4.48 289.15-9.47ZM343.87 0L330.18 0L337.98-42.05L337.98-42.05Q344.32-42.75 353.57-42.75L353.57-42.75L353.57-42.75Q362.82-42.75 367.10-40.06L367.10-40.06L367.10-40.06Q371.39-37.38 371.39-31.97L371.39-31.97L371.39-31.97Q371.39-26.56 368.61-23.17L368.61-23.17L368.61-23.17Q365.82-19.78 361.02-18.69L361.02-18.69L361.02-18.69Q362.11-13.38 364.61-9.09L364.61-9.09L364.61-9.09Q366.91-5.06 369.60-3.78L369.60-3.78L369.60-3.78Q368.64-1.09 366.69 0.10L366.69 0.10L366.69 0.10Q364.74 1.28 361.95 1.28L361.95 1.28L361.95 1.28Q359.17 1.28 356.99-0.35L356.99-0.35L356.99-0.35Q354.82-1.98 353.09-4.99L353.09-4.99L353.09-4.99Q349.44-11.52 349.06-21.82L349.06-21.82L349.50-21.82L349.50-21.82Q354.24-21.95 356.61-24.42L356.61-24.42L356.61-24.42Q358.98-26.88 358.98-32.06L358.98-32.06L358.98-32.06Q358.98-38.53 353.54-38.78L353.54-38.78L352.13-38.78L352.13-38.78Q351.55-38.78 351.23-38.72L351.23-38.72L343.87 0ZM412.48-29.57L412.48-29.57L412.48-29.57Q413.44-31.49 413.44-33.28L413.44-33.28L413.44-33.28Q413.44-35.07 413.25-36.06L413.25-36.06L413.25-36.06Q413.06-37.06 412.61-37.82L412.61-37.82L412.61-37.82Q411.65-39.49 409.73-39.49L409.73-39.49L409.73-39.49Q407.36-39.49 405.44-37.76L405.44-37.76L405.44-37.76Q403.39-35.97 403.39-33.15L403.39-33.15L403.39-33.15Q403.39-31.36 404.64-29.98L404.64-29.98L404.64-29.98Q405.89-28.61 407.81-27.33L407.81-27.33L407.81-27.33Q409.73-26.05 411.90-24.77L411.90-24.77L411.90-24.77Q414.08-23.49 416-21.95L416-21.95L416-21.95Q420.42-18.43 420.42-13.70L420.42-13.70L420.42-13.70Q420.42-10.50 418.72-7.78L418.72-7.78L418.72-7.78Q417.02-5.06 414.21-3.07L414.21-3.07L414.21-3.07Q408.06 1.28 399.94 1.28L399.94 1.28L399.94 1.28Q393.34 1.28 389.95-0.86L389.95-0.86L389.95-0.86Q386.56-3.01 386.56-6.27L386.56-6.27L386.56-6.27Q386.56-12.10 391.10-13.57L391.10-13.57L391.10-13.57Q392.38-14.02 394.34-14.02L394.34-14.02L394.34-14.02Q396.29-14.02 398.53-13.18L398.53-13.18L398.53-13.18Q397.50-10.56 397.50-8.19L397.50-8.19L397.50-8.19Q397.50-3.07 401.15-3.07L401.15-3.07L401.15-3.07Q403.52-3.07 405.47-4.80L405.47-4.80L405.47-4.80Q407.42-6.53 407.42-8.48L407.42-8.48L407.42-8.48Q407.42-10.43 406.18-11.84L406.18-11.84L406.18-11.84Q404.93-13.25 403.07-14.37L403.07-14.37L403.07-14.37Q401.22-15.49 399.07-16.58L399.07-16.58L399.07-16.58Q396.93-17.66 395.07-19.20L395.07-19.20L395.07-19.20Q390.72-22.72 390.72-28.35L390.72-28.35L390.72-28.35Q390.72-32 392.51-34.85L392.51-34.85L392.51-34.85Q394.30-37.70 397.18-39.62L397.18-39.62L397.18-39.62Q402.94-43.52 410.02-43.52L410.02-43.52L410.02-43.52Q417.09-43.52 420.51-41.41L420.51-41.41L420.51-41.41Q423.94-39.30 423.94-35.71L423.94-35.71L423.94-35.71Q423.94-32.58 421.50-30.59L421.50-30.59L421.50-30.59Q419.39-28.93 416.83-28.93L416.83-28.93L416.83-28.93Q414.27-28.93 412.48-29.57ZM430.40-31.17L430.40-31.17L430.40-31.17Q428.22-32.83 428.22-36.38L428.22-36.38L428.22-36.38Q428.22-39.94 430.56-41.79L430.56-41.79L430.56-41.79Q432.90-43.65 436.93-43.65L436.93-43.65L436.93-43.65Q439.49-43.65 445.57-42.75L445.57-42.75L449.92-42.11L449.92-42.11Q452.10-41.86 454.37-41.86L454.37-41.86L454.37-41.86Q456.64-41.86 458.18-42.82L458.18-42.82L458.18-42.82Q460.48-40.77 460.48-37.82L460.48-37.82L460.48-37.82Q460.48-34.88 457.86-32.77L457.86-32.77L457.86-32.77Q455.17-30.53 451.71-30.53L451.71-30.53L451.71-30.53Q450.05-30.53 447.36-30.98L447.36-30.98L447.36-30.98Q444.22-21.12 444.22-14.27L444.22-14.27L444.22-14.27Q444.22-7.42 447.68-3.84L447.68-3.84L447.68-3.84Q446.08-0.96 443.71 0.16L443.71 0.16L443.71 0.16Q441.34 1.28 437.79 1.28L437.79 1.28L437.79 1.28Q434.24 1.28 432.03-0.67L432.03-0.67L432.03-0.67Q429.82-2.62 429.82-6.66L429.82-6.66L429.82-6.66Q429.82-11.33 432.38-19.01L432.38-19.01L432.38-19.01Q434.94-26.62 438.78-32.45L438.78-32.45L438.78-32.45Q436.93-32.64 435.01-32.64L435.01-32.64L435.01-32.64Q431.04-32.64 430.40-31.17ZM459.39-15.62L459.39-15.62L459.39-15.62Q459.39-27.71 465.66-35.33L465.66-35.33L465.66-35.33Q472.32-43.58 483.90-43.58L483.90-43.58L483.90-43.58Q492.29-43.58 496.51-39.52L496.51-39.52L496.51-39.52Q500.74-35.46 500.74-26.88L500.74-26.88L500.74-26.88Q500.74-13.82 494.08-6.21L494.08-6.21L494.08-6.21Q487.49 1.28 476.42 1.28L476.42 1.28L476.42 1.28Q467.78 1.28 463.58-3.04L463.58-3.04L463.58-3.04Q459.39-7.36 459.39-15.62ZM476.22-28.86L476.22-28.86L476.22-28.86Q473.34-17.34 473.34-8.26L473.34-8.26L473.34-8.26Q473.34-6.08 474.08-4.67L474.08-4.67L474.08-4.67Q474.82-3.26 476.77-3.26L476.77-3.26L476.77-3.26Q478.72-3.26 479.94-4.19L479.94-4.19L479.94-4.19Q481.15-5.12 482.11-7.23L482.11-7.23L482.11-7.23Q483.65-10.69 485.09-18.02L485.09-18.02L485.09-18.02Q486.53-25.34 486.66-28.38L486.66-28.38L486.66-28.38Q486.78-31.42 486.78-33.73L486.78-33.73L486.78-33.73Q486.78-36.03 486.08-37.50L486.08-37.50L486.08-37.50Q485.38-38.98 483.49-38.98L483.49-38.98L483.49-38.98Q481.60-38.98 480.32-37.82L480.32-37.82L480.32-37.82Q477.95-35.65 476.22-28.86ZM516.99 0L503.30 0L511.10-42.05L511.10-42.05Q517.44-42.75 526.69-42.75L526.69-42.75L526.69-42.75Q535.94-42.75 540.22-40.06L540.22-40.06L540.22-40.06Q544.51-37.38 544.51-31.97L544.51-31.97L544.51-31.97Q544.51-26.56 541.73-23.17L541.73-23.17L541.73-23.17Q538.94-19.78 534.14-18.69L534.14-18.69L534.14-18.69Q535.23-13.38 537.73-9.09L537.73-9.09L537.73-9.09Q540.03-5.06 542.72-3.78L542.72-3.78L542.72-3.78Q541.76-1.09 539.81 0.10L539.81 0.10L539.81 0.10Q537.86 1.28 535.07 1.28L535.07 1.28L535.07 1.28Q532.29 1.28 530.11-0.35L530.11-0.35L530.11-0.35Q527.94-1.98 526.21-4.99L526.21-4.99L526.21-4.99Q522.56-11.52 522.18-21.82L522.18-21.82L522.62-21.82L522.62-21.82Q527.36-21.95 529.73-24.42L529.73-24.42L529.73-24.42Q532.10-26.88 532.10-32.06L532.10-32.06L532.10-32.06Q532.10-38.53 526.66-38.78L526.66-38.78L525.25-38.78L525.25-38.78Q524.67-38.78 524.35-38.72L524.35-38.72L516.99 0ZM552.90 0L545.54 0L557.12-42.24L570.50-42.24L573.44-18.11L585.34-42.24L596.54-42.24L597.70-10.62L597.70-10.62Q597.95-4.35 601.02-2.43L601.02-2.43L601.02-2.43Q600.32-1.15 598.27 0.06L598.27 0.06L598.27 0.06Q596.22 1.28 593.50 1.28L593.50 1.28L593.50 1.28Q590.78 1.28 589.18 0.51L589.18 0.51L589.18 0.51Q587.58-0.26 586.69-1.54L586.69-1.54L586.69-1.54Q585.09-3.84 585.09-8.26L585.09-8.26L585.09-28.03L572.48 0L564.54 0L560.06-28.74L552.90 0Z" fill="url(#editing-sticker-gradient)" stroke="#000" stroke-width="2.5"></path></g></g><style>text {
  font-size: 64px;
  font-family: Arial Black;
  dominant-baseline: central;
  text-anchor: middle;
}</style></svg>