<svg width="384.501318359375px" height="138.78740234375px" xmlns="http://www.w3.org/2000/svg" viewBox="57.74934082031251 5.606298828125006 384.501318359375 138.78740234375" style="background: rgba(0, 0, 0, 0);" preserveAspectRatio="xMidYMid"><defs><filter id="editing-liquid" width="150%" height="160%" x="-25%" y="-25%"><feFlood flood-color="#a0d5ff" result="flood-1"></feFlood><feFlood flood-color="rgba(100%,100%,100%,0.34)" result="flood-2"></feFlood><feFlood flood-color="#0067ff" result="flood-3"></feFlood><feTurbulence baseFrequency="0.01" type="fractalNoise" numOctaves="1" seed="1" result="bs-1"></feTurbulence><feGaussianBlur stdDeviation="10" in="SourceAlpha" result="bs-2"></feGaussianBlur><feDisplacementMap scale="420" in="bs-2" in2="bs-1" result="bs-3"></feDisplacementMap><feComposite operator="in" in="flood-1" in2="bs-3" result="bs-4"></feComposite><feTurbulence baseFrequency="0.02" type="fractalNoise" numOctaves="2" seed="2" result="ms-1"></feTurbulence><feGaussianBlur in="SourceAlpha" stdDeviation="0.1" result="ms-2"></feGaussianBlur><feDisplacementMap in="ms-2" in2="ms-1" scale="35" result="ms-3"></feDisplacementMap><feComposite in="flood-3" in2="ms-3" operator="in" result="ms-4"></feComposite><feTurbulence baseFrequency="0.05" type="fractalNoise" numOctaves="1" seed="3" result="ts-1"></feTurbulence><feGaussianBlur stdDeviation="3.5" in="SourceAlpha" result="ts-2"></feGaussianBlur><feDisplacementMap scale="220" in="ts-2" in2="ts-1" result="ts-3"></feDisplacementMap><feComposite operator="in" in="flood-2" in2="ts-3" result="ts-4"></feComposite><feMerge result="le-1"><feMergeNode in="bs-4"></feMergeNode><feMergeNode in="ms-4"></feMergeNode><feMergeNode in="ts-4"></feMergeNode></feMerge><feColorMatrix type="matrix" in="le-1" result="le-2" values="0 0 0 0 0, 0 0 0 0 0, 0 0 0 0 0, 0 0 0 1 0"></feColorMatrix><feGaussianBlur stdDeviation="2" in="le-2" result="le-3"></feGaussianBlur><feSpecularLighting surfaceScale="5" specularConstant=".75" specularExponent="30" lighting-color="#white" in="le-3" result="le-4"><fePointLight x="-50" y="-100" z="400"></fePointLight></feSpecularLighting><feComposite operator="in" in="le-4" in2="le-2" result="le-5"></feComposite><feComposite operator="arithmetic" k1="0" k2="1" k3="1" k4="0" in="le-1" in2="le-5" result="le-6"></feComposite></filter></defs><g filter="url(#editing-liquid)"><g transform="translate(116.32718873023987, 100.77937507629395)"><path d="M21.12 0.90L21.12 0.90Q14.98 0.90 9.50-0.16L9.50-0.16L9.50-0.16Q4.03-1.22 1.09-2.56L1.09-2.56L1.09-15.23L15.17-15.23L15.17-15.23Q15.17-13.25 16.06-12.35L16.06-12.35L16.06-12.35Q16.96-11.46 19.33-11.46L19.33-11.46L19.33-11.46Q21.31-11.46 22.18-12.06L22.18-12.06L22.18-12.06Q23.04-12.67 23.04-13.89L23.04-13.89L23.04-13.89Q23.04-14.91 22.21-15.65L22.21-15.65L22.21-15.65Q21.38-16.38 19.33-17.15L19.33-17.15L13.82-19.07L13.82-19.07Q6.72-21.76 3.62-25.41L3.62-25.41L3.62-25.41Q0.51-29.06 0.51-35.26L0.51-35.26L0.51-35.26Q0.51-42.82 5.47-46.75L5.47-46.75L5.47-46.75Q10.43-50.69 22.02-50.69L22.02-50.69L22.02-50.69Q27.58-50.69 32.48-49.57L32.48-49.57L32.48-49.57Q37.38-48.45 40.38-46.59L40.38-46.59L40.38-35.14L27.58-35.14L27.58-35.14Q27.58-38.34 23.62-38.34L23.62-38.34L23.62-38.34Q21.70-38.34 20.90-37.86L20.90-37.86L20.90-37.86Q20.10-37.38 20.10-36.16L20.10-36.16L20.10-36.16Q20.10-35.07 21.02-34.43L21.02-34.43L21.02-34.43Q21.95-33.79 24.06-33.09L24.06-33.09L29.63-31.17L29.63-31.17Q36.42-28.86 39.52-25.18L39.52-25.18L39.52-25.18Q42.62-21.50 42.62-15.55L42.62-15.55L42.62-15.55Q42.62-7.42 37.15-3.26L37.15-3.26L37.15-3.26Q31.68 0.90 21.12 0.90L21.12 0.90ZM92.16-49.79L92.16-34.30L81.15-34.30L81.15-39.30L77.06-39.30L77.06-10.50L81.54-10.50L81.54 0L54.66 0L54.66-10.50L59.14-10.50L59.14-39.30L55.04-39.30L55.04-34.30L44.03-34.30L44.03-49.79L92.16-49.79ZM118.40 0.90L118.40 0.90Q106.69 0.90 100.32-5.25L100.32-5.25L100.32-5.25Q93.95-11.39 93.95-24.90L93.95-24.90L93.95-24.90Q93.95-38.40 100.32-44.54L100.32-44.54L100.32-44.54Q106.69-50.69 118.40-50.69L118.40-50.69L118.40-50.69Q130.11-50.69 136.48-44.54L136.48-44.54L136.48-44.54Q142.85-38.40 142.85-24.90L142.85-24.90L142.85-24.90Q142.85-11.39 136.48-5.25L136.48-5.25L136.48-5.25Q130.11 0.90 118.40 0.90L118.40 0.90ZM118.40-10.50L118.40-10.50Q120.58-10.50 121.66-11.65L121.66-11.65L121.66-11.65Q122.75-12.80 122.75-15.23L122.75-15.23L122.75-34.56L122.75-34.56Q122.75-36.99 121.66-38.14L121.66-38.14L121.66-38.14Q120.58-39.30 118.40-39.30L118.40-39.30L118.40-39.30Q116.22-39.30 115.14-38.14L115.14-38.14L115.14-38.14Q114.05-36.99 114.05-34.56L114.05-34.56L114.05-15.23L114.05-15.23Q114.05-12.74 115.14-11.62L115.14-11.62L115.14-11.62Q116.22-10.50 118.40-10.50L118.40-10.50ZM145.02 0L145.02-10.50L148.22-10.50L148.22-39.30L145.02-39.30L145.02-49.79L174.40-49.79L174.40-49.79Q182.66-49.79 187.01-46.40L187.01-46.40L187.01-46.40Q191.36-43.01 191.36-35.39L191.36-35.39L191.36-35.39Q191.36-31.10 189.63-27.97L189.63-27.97L189.63-27.97Q187.90-24.83 184.70-23.62L184.70-23.62L184.77-22.98L184.77-22.98Q190.91-22.02 190.91-15.42L190.91-15.42L190.91-10.50L193.92-10.50L193.92 0L173.63 0L173.63-15.04L173.63-15.04Q173.63-17.54 172.90-18.82L172.90-18.82L172.90-18.82Q172.16-20.10 170.59-20.54L170.59-20.54L170.59-20.54Q169.02-20.99 166.14-20.99L166.14-20.99L166.14-10.50L170.37-10.50L170.37 0L145.02 0ZM166.14-28.80L169.60-28.80L169.60-28.80Q171.46-28.80 172.38-29.79L172.38-29.79L172.38-29.79Q173.31-30.78 173.31-32.90L173.31-32.90L173.31-35.20L173.31-35.20Q173.31-37.31 172.38-38.30L172.38-38.30L172.38-38.30Q171.46-39.30 169.60-39.30L169.60-39.30L166.14-39.30L166.14-28.80ZM266.82-49.79L266.82-39.30L263.62-39.30L263.62-10.50L266.82-10.50L266.82 0L242.62 0L242.62-10.50L245.70-10.50L245.70-32.90L234.82 0L225.34 0L214.14-32.58L214.14-10.50L217.22-10.50L217.22 0L196.22 0L196.22-10.50L199.42-10.50L199.42-39.30L196.22-39.30L196.22-49.79L225.54-49.79L232.19-29.82L238.59-49.79L266.82-49.79Z" fill="#444"></path></g></g><style>text {
  font-size: 64px;
  font-family: Arial Black;
  dominant-baseline: central;
  text-anchor: middle;
}</style></svg>